<?xml version="1.0" encoding="UTF-8" standalone="no"?>
<svg
   xmlns:osb="http://www.openswatchbook.org/uri/2009/osb"
   xmlns:dc="http://purl.org/dc/elements/1.1/"
   xmlns:cc="http://creativecommons.org/ns#"
   xmlns:rdf="http://www.w3.org/1999/02/22-rdf-syntax-ns#"
   xmlns:svg="http://www.w3.org/2000/svg"
   xmlns="http://www.w3.org/2000/svg"
   xmlns:sodipodi="http://sodipodi.sourceforge.net/DTD/sodipodi-0.dtd"
   xmlns:inkscape="http://www.inkscape.org/namespaces/inkscape"
   width="210mm"
   height="297mm"
   viewBox="0 0 210 297"
   version="1.1"
   id="svg41"
   inkscape:version="1.0.2-2 (e86c870879, 2021-01-15)"
   sodipodi:docname="lodeletters5.svg">
  <defs
     id="defs35">
    <linearGradient
       inkscape:collect="always"
       id="linearGradient2882"
       osb:paint="gradient">
      <stop
         style="stop-color:#000000;stop-opacity:1;"
         offset="0"
         id="stop2878" />
      <stop
         style="stop-color:#000000;stop-opacity:0;"
         offset="1"
         id="stop2880" />
    </linearGradient>
  </defs>
  <sodipodi:namedview
     id="base"
     pagecolor="#ffffff"
     bordercolor="#666666"
     borderopacity="1.0"
     inkscape:pageopacity="0.0"
     inkscape:pageshadow="2"
     inkscape:zoom="0.1775"
     inkscape:cx="8274.9092"
     inkscape:cy="2214.4042"
     inkscape:document-units="mm"
     inkscape:current-layer="layer1"
     inkscape:document-rotation="0"
     showgrid="true"
     inkscape:window-width="1920"
     inkscape:window-height="986"
     inkscape:window-x="-11"
     inkscape:window-y="-11"
     inkscape:window-maximized="1">
    <inkscape:grid
       type="xygrid"
       id="grid914"
       dotted="true"
       spacingx="5.2916667"
       spacingy="5.2916667" />
  </sodipodi:namedview>
  <metadata
     id="metadata38">
    <rdf:RDF>
      <cc:Work
         rdf:about="">
        <dc:format>image/svg+xml</dc:format>
        <dc:type
           rdf:resource="http://purl.org/dc/dcmitype/StillImage" />
        <dc:title></dc:title>
      </cc:Work>
    </rdf:RDF>
  </metadata>
  <g
     inkscape:label="Layer 1"
     inkscape:groupmode="layer"
     id="layer1">
    <path
       style="fill:#000000;fill-opacity:1;fill-rule:evenodd;stroke:#000000;stroke-width:0.264583px;stroke-linecap:butt;stroke-linejoin:miter;stroke-opacity:1"
       d="M 227.54167,291.04166 V 301.625 H 238.125 V 285.75 H 222.25 v 42.33333 h 47.625 v -37.04167 h -89.95834 l 1e-5,31.75001 h 31.75 V 285.75 l -37.04167,0 v 42.33333 h 42.33333 v -47.625 H 116.41667 v 15.875 H 127 v -21.16667 h -15.875 v 52.91667 h 52.91666 V 291.04166 H 63.499999 L 63.5,322.79167 H 95.250001 V 285.75 l -37.041668,0 v 42.33333 h 42.333337 v -47.625 l -95.2500033,1e-5 v 47.625 H 52.916667 V 301.625 285.75 H 10.583333 l 0,5.29167 31.75,-1e-5 v -58.20833 h -31.75 v 10.58334 h 10.583334 v -15.875 H 5.2916666 v 47.62499 H 100.54167 V 232.83333 H 52.916666 v 15.875 h 10.583333 v -21.16666 h -15.875 V 269.875 H 222.25 Z"
       id="path916"
       sodipodi:nodetypes="ccccccccccccccccccccccccccccccccccccccccccccccccccccccccc" />
    <path
       style="fill:#000000;fill-opacity:1;fill-rule:evenodd;stroke:#000000;stroke-width:0.264583px;stroke-linecap:butt;stroke-linejoin:miter;stroke-opacity:1"
       d="m 26.458333,365.125 v 58.20833 l 52.916668,1e-5 -2e-6,-52.91668 H 21.166667 v 58.20833 H 142.875 137.58333 v -58.20833 l -52.916663,1e-5 -10e-7,52.91666 H 195.79166 l 1e-5,-52.91666 -52.91667,-1e-5 v 58.20833 h 58.20833 V 365.125 Z"
       id="path918"
       sodipodi:nodetypes="cccccccccccccccccc" />
    <path
       style="fill:#000000;stroke:#000000;stroke-width:0.264583px;stroke-linecap:butt;stroke-linejoin:miter;stroke-opacity:1;fill-rule:evenodd;fill-opacity:1"
       d="m 31.75,449.79166 v 58.20833 H 84.666666 V 455.08333 H 26.458333 v 58.20833 H 142.875 V 455.08333 H 89.958332 v 52.91666 H 201.08333 v -52.91666 h -52.91667 v 58.20833 h 116.41667 v 0 -58.20833 H 206.375 v 52.91666 H 328.08333 V 455.08333 H 269.875 v 58.20834 h 63.5 v 5.29167 l -312.208333,0 v -68.79167 z"
       id="path920"
       sodipodi:nodetypes="ccccccccccccccccccccccccc" />
    <path
       style="fill:#000000;fill-opacity:1;fill-rule:evenodd;stroke:#000000;stroke-width:0.264583px;stroke-linecap:butt;stroke-linejoin:miter;stroke-opacity:1"
       d="m 10.583325,709.08333 h 52.91667 V 656.16667 H 5.2916553 V 714.375 H 121.70834 V 656.16667 H 68.791657 v 52.91666 H 179.91667 V 656.16667 H 127 V 714.375 h 116.41667 v 0 -58.20833 h -58.20833 v 52.91666 h 121.70833 v -52.91666 h -58.20833 v 58.20834 h 63.5 v 5.29167 H -4.6999831e-6 L -3.5999725e-6,650.875 -2.499962e-6,582.08333 10.583327,582.08332 v 58.20833 h 52.91667 V 587.37499 H 5.2916575 v 58.20833 H 121.70834 V 587.37499 H 68.791659 v 52.91666 H 179.91667 V 587.37499 H 127 v 58.20833 h 116.41667 v 0 -58.20833 h -58.20833 v 52.91666 h 121.70833 v -52.91666 h -58.20833 v 58.20834 h 63.5 l -1e-5,5.29167 H 10.583329 Z"
       id="path920-8-5"
       sodipodi:nodetypes="cccccccccccccccccccccccccccccccccccccccccccccccccccccc" />
    <path
       style="fill:none;fill-opacity:1;fill-rule:evenodd;stroke:#000000;stroke-width:0.264583px;stroke-linecap:butt;stroke-linejoin:miter;stroke-opacity:1"
       d="m 439.20834,640.29167 0,-63.5 V 508 l 10.58333,-10e-6 v 58.20833 h 52.91667 V 513.29166 H 444.5 v 58.20833 H 560.91668 V 513.29166 H 508 v 52.91666 h 111.12502 v -52.91666 h -52.91667 v 58.20833 h 116.41667 v 0 -58.20833 h -58.20833 v 52.91666 H 746.12502 V 513.29166 H 687.91669 V 571.5 h 63.5 l -10e-6,5.29167 H 449.79167 V 635 h 52.91667 V 582.08334 H 444.5 v 58.20833 H 560.91668 V 582.08334 H 508 V 635 h 111.12502 v -52.91666 h -52.91667 v 58.20833 h 116.41667 v 0 -58.20833 H 624.41669 V 635 h 121.70833 v -52.91666 h -58.20833 v 58.20834 h 63.5 v 5.29167"
       id="path920-8-5-6"
       sodipodi:nodetypes="ccccccccccccccccccccccccccccccccccccccccccccccccccccc" />
    <path
       style="fill:none;fill-opacity:1;fill-rule:evenodd;stroke:#000000;stroke-width:0.264583px;stroke-linecap:butt;stroke-linejoin:miter;stroke-opacity:1"
       d="m 444.49999,814.91671 v 58.2083 h 52.91667 v -52.9166 h -58.20834 v 58.2083 H 555.625 v -58.2083 h -52.91668 v 52.9166 h 111.12502 v -52.9166 h -52.91667 v 58.2083 h 116.41667 v 0 -58.2083 h -58.20833 v 52.9166 h 121.70833 v -52.9166 h -58.20833 v 58.2083 h 63.5 l -10e-6,5.2917 H 444.49999 v 58.2083 h 52.91667 v -52.9167 h -58.20834 v 58.2084 H 555.625 v -58.2084 h -52.91668 v 52.9167 h 111.12502 v -52.9167 h -52.91667 v 58.2084 h 116.41667 v 0 -58.2084 h -58.20833 v 52.9167 h 121.70833 v -52.9167 h -58.20833 v 58.2084 h 63.5 v 5.2917 H 433.91666 v -68.7917 -68.7917"
       id="path920-8-5-6-7"
       sodipodi:nodetypes="ccccccccccccccccccccccccccccccccccccccccccccccccccccc" />
    <path
       style="fill:none;fill-opacity:1;fill-rule:evenodd;stroke:#000000;stroke-width:0.264583px;stroke-linecap:butt;stroke-linejoin:miter;stroke-opacity:1"
       d="m 449.79169,650.875 v 58.20833 h 52.91667 V 656.16667 H 444.50002 V 714.375 H 560.9167 v -58.20833 h -52.91668 v 52.91666 H 619.12504 V 656.16667 H 566.20837 V 714.375 h 116.4167 v 0 -58.20833 h -58.20836 v 52.91666 h 121.70836 v -52.91666 h -58.2084 v 58.20834 h 63.5 v 5.29166 H 449.79169 v 58.20834 h 52.91667 v -52.91666 h -58.20834 v 58.20836 H 560.9167 v -58.20836 h -52.91668 v 52.91666 h 111.12502 v -52.91666 h -52.91667 v 58.20836 h 116.4167 v 0 -58.20836 h -58.20836 v 52.91666 h 121.70836 v -52.91666 h -58.2084 v 58.20836 h 63.5 v 5.2916 m -312.20831,0 v -68.79164 -68.79166"
       id="path920-8-5-6-7-2"
       sodipodi:nodetypes="ccccccccccccccccccccccccccccccccccccccccccccccccccccc" />
    <path
       style="fill:#000000;fill-opacity:1;fill-rule:evenodd;stroke:#000000;stroke-width:0.264583px;stroke-linecap:butt;stroke-linejoin:miter;stroke-opacity:1"
       d="m 799.04167,656.16667 v -68.79166 -68.79166 l -10e-6,-5.29167 v -63.5 -68.79167 L 809.62499,381 v 58.20833 h 52.91667 V 386.29167 H 804.33332 V 444.5 H 920.75 v -58.20833 h -52.91668 v 52.91666 H 978.95834 V 386.29167 H 926.04167 V 444.5 h 116.41673 v 0 -58.20833 h -58.20839 v 52.91666 H 1105.9584 V 386.29167 H 1047.75 v 58.20834 h 63.5 v 5.29167 H 809.62499 v 58.20833 h 52.91667 v -52.91666 h -58.20834 v 58.20833 H 920.75 l 10e-6,-10.58334 h -5.29167 V 508 h 15.875 v -5.29166 h -5.29167 v 10.58334 h 116.41673 v 0 l -10e-5,-10.58334 h -5.2916 V 508 h 15.875 v -5.29166 h -5.2917 v 10.58335 h 63.5 v 5.29167 l -301.625,-2e-5 v 58.20833 h 52.91667 v -52.91666 h -58.20834 v 58.20833 h 116.41668 v -58.20833 h -52.91668 v 52.91666 h 111.12502 v -52.91666 h -52.91667 v 58.20833 h 116.41662 v 0 -58.20833 h -58.20828 v 52.91666 h 68.79168 V 571.5 h -5.2917 l -10e-5,10.58335 h 63.5 v 5.29166 H 809.625 v 58.20834 h 52.91667 v -52.91666 h -58.20834 v 58.20836 h 116.41668 v -10.58338 h -5.29167 v 5.29167 h 15.875 v -5.29167 h -5.29167 l 1e-5,10.58338 h 116.41662 v 0 -10.58338 h -5.2916 v 5.29167 h 15.875 v -5.29167 h -5.2917 l -10e-5,10.58338 h 63.5 v 5.2916 l -301.6249,-2e-5 v 58.20833 h 52.91667 V 661.4583 h -58.20834 v 58.20833 H 920.75001 V 661.4583 h -52.91668 v 52.91666 H 978.95835 V 661.4583 h -52.91667 v 58.20833 h 116.41672 v 0 -58.20833 h -58.20838 v 52.91666 H 1105.9584 V 661.4583 H 1047.75 v 58.20834 h 63.5 v 5.29166 H 809.625 l 10e-6,10.58337 h 5.29166 V 730.25 l -10.58334,-2e-5 v 58.20836 h 116.41668 l 0,-10.58334 h -5.29167 v 5.29167 h 15.875 V 777.875 h -5.29167 l 1e-5,10.58334 h 116.41672 v 0 l -10e-5,-10.58334 h -5.2916 v 5.29167 h 15.875 V 777.875 h -5.2917 l 0,10.58334 h 63.5 v 5.2916 l -301.62499,3e-5 v 58.2083 h 52.91667 v -52.9166 h -58.20834 v 58.2083 h 116.41668 v -58.2083 h -52.91668 v 52.9166 h 111.12502 v -52.9166 h -52.91667 v 58.2083 h 116.41661 v 0 -58.2083 h -58.20827 v 52.9166 h 121.70827 v -52.9166 H 1047.75 v 58.2083 h 63.5 v 5.2917 H 809.62501 v 58.20826 h 52.91667 v -52.91666 h -58.20834 v 58.20836 h 116.41668 v -58.20836 h -52.91668 v 52.91666 h 111.12502 v -52.91666 h -52.91667 v 58.20836 h 116.41661 v 0 -58.20836 h -58.20827 v 52.91666 H 1105.9583 V 867.83327 H 1047.75 v 58.20836 h 63.5 v 5.2917 H 799.04168 v -68.79166 -68.7917"
       id="path920-8-5-6-7-2-7"
       sodipodi:nodetypes="ccccccccccccccccccccccccccccccccccccccccccccccccccccccccccccccccccccccccccccccccccccccccccccccccccccccccccccccccccccccccccccccccccccccccccccccccccccccccccccccccccccccccccccccccccccccccccccccccccccccccccccccccc" />
    <path
       style="fill:none;fill-opacity:1;fill-rule:evenodd;stroke:#000000;stroke-width:0.264583px;stroke-linecap:butt;stroke-linejoin:miter;stroke-opacity:1"
       d="M 799.04167,793.74994 V 724.9583 656.16664"
       id="path920-8-5-6-7-2-4"
       sodipodi:nodetypes="ccc" />
    <text
       xml:space="preserve"
       style="font-style:normal;font-weight:normal;font-size:10.5833px;line-height:1.25;font-family:sans-serif;fill:#000000;fill-opacity:1;stroke:none;stroke-width:0.264583"
       x="-978.95831"
       y="0"
       id="text3096"><tspan
         sodipodi:role="line"
         id="tspan3094"
         x="-978.95831"
         y="0"
         style="font-size:52.9167px;stroke-width:0.264583">Checkerboard pattern filling, with a one line path.</tspan><tspan
         sodipodi:role="line"
         x="-978.95831"
         y="66.145836"
         style="font-size:52.9167px;stroke-width:0.264583"
         id="tspan3098">Create cells that can open and close as pixels. </tspan><tspan
         sodipodi:role="line"
         x="-978.95831"
         y="132.29167"
         style="font-size:52.9167px;stroke-width:0.264583"
         id="tspan3100">Now, any picture can be created as a checkerboard pattern line</tspan><tspan
         sodipodi:role="line"
         x="-978.95831"
         y="159.81549"
         style="stroke-width:0.264583"
         id="tspan3102" /></text>
    <path
       style="fill:none;fill-opacity:1;fill-rule:evenodd;stroke:#000000;stroke-width:0.264583px;stroke-linecap:butt;stroke-linejoin:miter;stroke-opacity:1"
       d="m 1254.125,566.20827 h -58.2083 v 26.4584 h 58.2083 z"
       id="path3104"
       sodipodi:nodetypes="ccccc" />
    <path
       style="fill:none;fill-opacity:1;fill-rule:evenodd;stroke:#000000;stroke-width:0.264583px;stroke-linecap:butt;stroke-linejoin:miter;stroke-opacity:1"
       d="M 1328.2083,566.20824 H 1270 v 26.4584 h 58.2083 z"
       id="path3104-4"
       sodipodi:nodetypes="ccccc" />
    <path
       style="fill:none;fill-opacity:1;fill-rule:evenodd;stroke:#000000;stroke-width:0.264583px;stroke-linecap:butt;stroke-linejoin:miter;stroke-opacity:1"
       d="m 1402.2916,566.20824 h -58.2083 v 26.4584 h 58.2083 z"
       id="path3104-4-3"
       sodipodi:nodetypes="ccccc" />
    <path
       style="fill:none;fill-opacity:1;fill-rule:evenodd;stroke:#000000;stroke-width:0.264583px;stroke-linecap:butt;stroke-linejoin:miter;stroke-opacity:1"
       d="m 1254.125,640.2916 h -58.2083 V 666.75 h 58.2083 z"
       id="path3104-9"
       sodipodi:nodetypes="ccccc" />
    <path
       style="fill:none;fill-opacity:1;fill-rule:evenodd;stroke:#000000;stroke-width:0.264583px;stroke-linecap:butt;stroke-linejoin:miter;stroke-opacity:1"
       d="M 1328.2083,640.29167 H 1270 v 26.4584 h 58.2083 z"
       id="path3104-9-3"
       sodipodi:nodetypes="ccccc" />
    <path
       style="fill:none;fill-opacity:1;fill-rule:evenodd;stroke:#000000;stroke-width:0.264583px;stroke-linecap:butt;stroke-linejoin:miter;stroke-opacity:1"
       d="m 1402.2917,635 h -26.4583 v 26.4584 h 58.2083 V 635 h -26.4583 l -10e-5,63.50004 31.75,-5e-5 v -142.875 H 1222.375 v 68.79167 l 31.75,2e-5 V 560.9166 h -26.4583 v 26.4584 h 58.2083 v -26.4584 h -26.4583 v 63.50008 l 68.7916,-1e-5 v -63.5001 H 1301.75 v 26.4584 h 58.2083 v -26.4584 H 1333.5 v 63.5001 h 68.7916 v -63.5001 h -26.4583 v 26.4584 h 58.2083 v -26.4584 h -26.4583 v 63.5001 5.29165 H 1222.375 v 68.79167 l 31.75,2e-5 v -63.50008 h -26.4583 v 26.4584 h 58.2083 v -26.4584 h -26.4583 v 63.50008 l 68.7916,3e-5 V 635 H 1301.75 v 26.4584 h 58.2083 V 635 H 1333.5 v 63.50004 h 68.7916 z m 31.75,31.75 h -58.2083 v 26.4584 h 58.2083 z"
       id="path3104-9-6"
       sodipodi:nodetypes="ccccccccccccccccccccccccccccccccccccccccccccccccccccccccccccc" />
    <path
       style="fill:none;stroke:#000000;stroke-width:0.264583px;stroke-linecap:butt;stroke-linejoin:miter;stroke-opacity:1"
       d="m 1476.375,513.29166 c 2.5092,-9.73865 5.346,-19.39872 7.5276,-29.21595 2.6899,-12.10472 6.1969,-24.15149 7.0804,-36.51996 0.3338,-4.67329 -3.8011,-4.44389 -5.9625,-6.33511 -0.4674,-0.40899 -0.6537,-1.07796 -1.1179,-1.49061 -2.396,-2.12973 -5.9299,-2.75108 -8.9437,-3.35386 -0.8526,-0.17052 -1.7478,0.12296 -2.6086,0 -1.6268,-0.23241 -0.8521,-0.90495 -2.9812,-0.37266 -0.4345,0.10864 -0.693,0.60367 -1.1179,0.7453 -0.7168,0.23895 -1.5138,0.15045 -2.236,0.37267 -2.5114,0.77274 -4.2897,2.19252 -6.3351,3.72652 -3.482,2.61149 -5.4769,4.20148 -5.9624,8.571 -0.3653,3.28739 -1.356,8.44076 0.3726,11.55223 0.7265,1.30755 1.9526,2.26801 2.9813,3.35389 4.3395,4.58065 7.2321,6.39199 13.0428,8.57099 0.8858,0.33218 1.6959,0.86905 2.6086,1.11797 0.4793,0.13073 1.0192,-0.15714 1.4906,0 1.4766,0.49218 2.686,1.58366 4.0992,2.23591 4.4594,2.0582 9.1118,3.75582 13.7881,5.21714 0.7212,0.22537 1.4984,0.20875 2.2359,0.37266 2.6512,0.58912 5.0469,1.95803 7.8257,2.23592 1.7208,0.17206 3.4986,-0.19095 5.2172,0 6.2487,0.69429 -4.1361,0.0644 3.3539,0.7453 3.3701,0.30636 7.0862,0 10.4342,0 7.7363,0 13.7967,0.0715 21.2412,-2.60858 2.3363,-0.84106 7.3884,-2.3029 9.3163,-4.47183 0.4444,-0.49995 0.3862,-1.29892 0.7453,-1.86327 0.5209,-0.81849 1.3111,-1.43825 1.8633,-2.23592 3.0226,-4.36589 4.9366,-10.37571 3.3539,-15.6514 -1.6742,-5.58064 -7.5182,-8.24179 -11.9249,-11.17957 -1.7849,-1.18991 -4.5771,-3.56653 -6.7078,-4.09919 -0.482,-0.12049 -1.0128,0.1365 -1.4906,0 -0.4306,-0.12303 -0.7063,-0.56888 -1.1179,-0.7453 -1.9179,-0.82193 -6.2504,-0.8222 -8.1984,-0.37264 -4.1693,0.96213 -4.3559,2.86528 -7.0804,5.58977 -0.5624,0.56243 -1.3008,0.92821 -1.8632,1.49061 -4.4273,4.4273 -7.9805,10.29854 -10.4343,16.02407 -0.5533,1.29108 -0.7317,3.98092 -1.118,5.21713 -0.7922,2.53505 -2.0633,4.83571 -2.6085,7.45307 -1.6065,7.71105 -3.0052,15.51689 -6.3351,22.73179 -1.712,3.70922 -3.8286,8.43343 -2.9813,12.6702 0.4937,2.46841 5.7963,3.17426 7.4531,3.72653 7.2806,2.42686 -0.7309,-0.0896 7.0804,1.86325 3.2522,0.81306 3.1453,1.20891 5.9624,1.49061 4.7367,0.47368 13.1705,0.45347 17.142,-1.86325 2.6843,-1.56581 4.4669,-4.14383 5.9625,-6.70774 0.4513,-0.77375 1.1845,-1.39412 1.4906,-2.23592 0.2123,-0.5837 0,-1.24219 0,-1.86327 0,-6.21388 -3.6139,-8.95885 -8.9437,-11.17958 -4.7281,-1.97008 -9.8137,-3.31575 -14.9061,-4.09919 -1.2053,-0.18542 -2.5217,0.2008 -3.7265,0 -0.3874,-0.0645 -0.7282,-0.32392 -1.1179,-0.37263 -1.5383,-0.1923 -3.2881,0 -4.8445,0 -3.7637,0 -7.4561,0 -11.1796,-0.37267 -1.1124,-0.11123 -2.2428,0.12345 -3.3539,0 -2.266,-0.25178 -4.4639,-1.24129 -6.7077,-1.49061 -2.5072,-0.27858 -5.4393,0.20929 -7.8257,-0.7453 -2.4718,-0.9887 -6.2122,-3.53754 -8.571,-4.09917 -5.0124,-1.19343 -7.0331,-0.56377 -12.2976,-0.7453 -1.3712,-0.0473 -2.7312,-0.26744 -4.0992,-0.37267 -0.1275,-0.01 -1.77,-0.0777 -1.8632,0 -0.611,0.50919 -0.9282,1.30085 -1.4906,1.86328 -1.805,1.80498 -4.2853,2.9342 -5.5898,5.21713 -1.256,2.19792 -1.8761,7.42746 -0.7453,9.68896 0.8425,1.68495 1.0065,1.00653 2.6086,2.60858 2.3839,2.38398 3.6087,3.91525 7.0803,5.21714 0.3958,0.1484 1.9167,-0.029 2.236,0 3.2913,0.29919 6.381,0.37264 9.6889,0.37264 2.8334,0 2.4761,-0.0796 5.5898,1.11797 1.6478,0.63373 2.6086,0.97221 2.6086,0.7453 0,-0.12422 -0.2875,0.0904 -0.3727,0 -0.7392,-0.78547 -1.3415,-1.68936 -2.0123,-2.53405"
       id="path3246" />
    <path
       style="fill:none;stroke:#000000;stroke-width:0.264583px;stroke-linecap:butt;stroke-linejoin:miter;stroke-opacity:1"
       d="m 1561.0418,619.12501 -10e-5,-42.33334 h -5.2917 v 5.29167 h 15.875 l 0,-5.29167 h -5.2917 l 0,15.875 h 5.2917 l 0,-5.29167 h -21.1667 v 5.29167 h 5.2917 l 10e-5,26.45833"
       id="path3254-6"
       sodipodi:nodetypes="cccccccccccccc" />
    <path
       style="fill:#000000;stroke:#000000;stroke-width:0.264583px;stroke-linecap:butt;stroke-linejoin:miter;stroke-opacity:1;fill-opacity:1"
       d="m 1640.4167,619.125 h 31.7499 V 550.33334 H 1603.375 V 619.125 l 26.4583,-10e-6 v -5.29166 h -21.1667 v -26.45834 h 58.2083 l 10e-5,26.45835 h -26.4584 v -58.20835 l 26.4584,10e-6 v 26.45834 l -58.2084,-10e-6 v -26.45834 h 26.4583 l 10e-5,58.20835 0,10.58333 h -37.0417 v -79.375 h 79.375 v 79.375 h -37.0416 z"
       id="path3254-0"
       sodipodi:nodetypes="ccccccccccccccccccc" />
    <path
       style="fill:#000000;stroke:#000000;stroke-width:0.264583px;stroke-linecap:butt;stroke-linejoin:miter;stroke-opacity:1;fill-opacity:1"
       d="m 1772.7083,619.125 c -12.3472,0 -33.508,2e-5 -31.75,0 m 31.75,0 v -68.79166 h -68.7916 V 619.125 h 26.4584 l -10e-5,-26.45833 h -5.2917 V 587.375 h 21.1667 v 5.29167 h -5.2917 v -15.875 h 5.2917 v 5.29167 h -15.875 v -5.29167 h 5.2917 v 37.04167 l 0,10.58333 h -37.0417 v -79.375 H 1778 l 0,79.375 h -37.0417 l 0,-5.29167"
       id="path3254-6-5"
       sodipodi:nodetypes="cccccccccccccccccccc" />
    <path
       style="fill:#000000;fill-opacity:1;stroke:#000000;stroke-width:0.264583px;stroke-linecap:butt;stroke-linejoin:miter;stroke-opacity:1"
       d="m 1566.3336,915.45832 10e-5,-5.29165 h -21.1667 v -26.45834 h 58.2083 l 10e-5,26.45835 h -26.4584 v -58.20835 l 26.4584,10e-6 v 26.45834 l -58.2084,-1e-5 v -26.45834 h 26.4583 v 63.5 l 37.0414,10e-6 V 703.79167 h 5.2916 v 211.66667 l 26.4585,-2e-5 v -5.29165 h -21.1667 v -26.45834 h 58.2083 l 10e-5,26.45835 h -26.4584 v -58.20835 l 26.4584,10e-6 v 26.45834 l -58.2084,-1e-5 v -26.45834 h 26.4583 l 10e-5,63.5 37.0415,10e-6 V 703.79167 h 5.2917 v 211.66667 l 26.4584,-2e-5 10e-5,-5.29166 h -21.1667 v -26.45834 h 58.2083 l 10e-5,26.45835 h -26.4584 v -58.20835 l 26.4584,1e-5 v 26.45834 l -58.2084,-10e-6 v -26.45834 h 26.4583 l 10e-5,63.50001 h -3e-4 37.0417 V 698.5 h -216.9584 v 68.79167 l 26.4585,-10e-6 10e-5,-5.29167 h -21.1667 v -26.45834 h 58.2083 L 1603.3752,762 h -26.4584 v -58.20835 l 26.4584,10e-6 V 730.25 l -58.2084,-10e-6 v -26.45834 h 26.4583 l 10e-5,63.50001 h 68.7916 -10e-5 V 762 H 1619.25 v -26.45834 h 58.2083 l 10e-5,26.45835 H 1651 v -58.20835 l 26.4584,10e-6 v 26.45834 L 1619.25,730.25 v -26.45834 h 26.4583 l 10e-5,63.5 68.7917,-10e-6 -10e-5,-5.29166 h -21.1667 v -26.45834 h 58.2083 L 1751.5417,762 h -26.4584 v -58.20835 l 26.4584,10e-6 V 730.25 l -58.2084,-10e-6 v -26.45834 h 26.4583 l 10e-5,63.50001 31.75,10e-6 v 5.29167 l -211.6666,-2e-5 v 68.79167 h 26.4585 l 10e-5,-5.29165 H 1545.167 V 809.625 h 58.2083 l 10e-5,26.45835 H 1576.917 V 777.875 l 26.4584,10e-6 v 26.45834 l -58.2084,-10e-6 V 777.875 h 26.4583 v 63.5 h 68.7915 v -5.29166 h -21.1667 V 809.625 h 58.2083 l 10e-5,26.45835 h -26.4584 V 777.875 l 26.4584,10e-6 v 26.45834 l -58.2084,-10e-6 V 777.875 h 26.4583 l 10e-5,63.5 68.7916,-10e-6 10e-5,-5.29166 h -21.1667 v -26.45834 h 58.2083 l 10e-5,26.45835 h -26.4584 v -58.20835 l 26.4584,10e-6 v 26.45834 l -58.2084,-10e-6 v -26.45834 h 26.4583 l 10e-5,63.50001 31.7498,10e-6 v 5.29166 l -211.6666,-10e-6 v 68.79166 l -10e-5,5.29169 h -5.2917 l 0,-227.54167 h 227.5417 v 227.54167 h -216.9583 v -5.29167 z"
       id="path3384"
       sodipodi:nodetypes="cccccccccccccccccccccccccccccccccccccccccccccccccccccccccccccccccccccccccccccccccccccccccccccccccccccccccccccccccccccccccccccccccccccccccccccccccccc" />
    <path
       style="fill:none;stroke:#000000;stroke-width:0.264583px;stroke-linecap:butt;stroke-linejoin:miter;stroke-opacity:1"
       d="m 1444.6251,756.70834 h 37.0416"
       id="path3416" />
    <path
       style="fill:none;stroke:#000000;stroke-width:0.264583px;stroke-linecap:butt;stroke-linejoin:miter;stroke-opacity:1"
       d="m 1486.9583,793.75 -5.2917,-37.04166"
       id="path3418" />
    <path
       style="fill:#000000;fill-opacity:1;stroke:#000000;stroke-width:0.264583px;stroke-linecap:butt;stroke-linejoin:miter;stroke-opacity:1"
       d="m 1846.7918,915.45834 10e-5,-5.29165 h -21.1667 v -26.45834 h 58.2083 l 10e-5,26.45835 h -26.4584 v -58.20835 l 26.4584,10e-6 v 26.45834 l -58.2084,-10e-6 v -26.45834 h 26.4583 v 63.5 l 37.0414,10e-6 V 703.79169 h 5.2916 v 211.66667 l 26.4585,-2e-5 v -5.29165 h -21.1667 v -26.45834 h 58.2083 l 10e-5,26.45835 h -26.4584 v -58.20835 l 26.4584,10e-6 v 26.45834 l -58.2084,-10e-6 v -26.45834 h 26.4583 l 10e-5,63.5 37.0415,10e-6 V 703.79169 h 5.2917 v 211.66667 l 26.4584,-2e-5 10e-5,-5.29166 h -21.1667 V 883.70834 H 2032 l 10e-5,26.45835 h -26.4584 v -58.20835 l 26.4584,10e-6 v 26.45834 l -58.2084,-10e-6 v -26.45834 h 26.4583 l 10e-5,63.50001 h -3e-4 37.0417 V 698.50002 h -216.9584 v 68.79167 l 26.4585,-10e-6 10e-5,-5.29167 0,-21.16667 v -5.29167 h 15.875 v 5.29167 h -5.2917 l 0,-15.875 h 5.2917 l 0,5.29166 h -15.875 l 0,-5.29166 h 5.2916 l 10e-5,42.33334 h 68.7916 -10e-5 v -5.29166 l 10e-5,-21.16668 v -5.29167 h 15.875 l 0,5.29167 h -5.2917 l 0,-15.875 h 5.2917 l 0,5.29166 h -15.875 v -5.29166 h 5.2917 l -10e-5,42.33334 68.7917,-1e-5 -10e-5,-5.29166 10e-5,-21.16667 v -5.29167 h 15.875 v 5.29167 h -5.2916 v -15.875 h 5.2916 l 0,5.29166 h -15.875 v -5.29166 h 5.2917 l -10e-5,42.33334 31.75,10e-6 v 5.29167 l -211.6666,-2e-5 v 68.79167 h 26.4585 l 10e-5,-5.29165 h -21.1667 v -26.45834 h 58.2083 l 10e-5,26.45835 h -26.4584 v -58.20835 l 26.4584,1e-5 v 26.45834 l -58.2084,-10e-6 v -26.45834 h 26.4583 v 63.5 h 68.7915 v -5.29166 l 0,-21.16669 0,-5.29166 h 15.875 v 5.29166 h -5.2917 l 0,-15.875 h 5.2917 l 0,5.29167 h -15.875 v -5.29167 h 5.2917 l 0,42.33335 68.7916,-10e-6 10e-5,-5.29166 h -21.1667 V 809.62501 H 2032 l 10e-5,26.45835 h -26.4584 v -58.20835 l 26.4584,10e-6 v 26.45834 l -58.2084,-10e-6 0,-26.45835 26.4583,10e-6 10e-5,63.50001 31.7498,1e-5 v 5.29166 l -211.6666,-10e-6 v 68.79166 l -10e-5,5.29169 h -5.2917 V 693.20836 h 227.5417 v 227.54167 h -216.9583 v -5.29167 z"
       id="path3384-4"
       sodipodi:nodetypes="cccccccccccccccccccccccccccccccccccccccccccccccccccccccccccccccccccccccccccccccccccccccccccccccccccccccccccccccccccccccccccccccccccccccccccccccccccccccccccc" />
    <path
       style="fill:#000000;fill-opacity:1;stroke:#000000;stroke-width:0.264583px;stroke-linecap:butt;stroke-linejoin:miter;stroke-opacity:1"
       d="m 2090.2082,915.45834 10e-5,-5.2917 0,-21.16663 v -5.29167 h 15.875 l 0,5.29167 h -5.2916 v -15.875 h 5.2916 l 0,5.29166 h -15.875 l 0,-5.29166 h 5.2917 l -1e-4,42.33333 h 37.0414 V 703.79166 h 5.2916 v 211.66668 h 26.4585 v -5.2917 l 3e-4,-21.16663 0,-5.29167 h 15.875 v 5.29167 h -5.2917 l 0,-15.875 h 5.2917 l 0,5.29166 h -15.875 v -5.29166 h 5.2916 l -2e-4,42.33333 h 37.0415 V 703.79166 h 5.2917 v 211.66668 h 26.4584 l 1e-4,-5.2917 2e-4,-21.16663 0,-5.29167 h 15.875 v 5.29167 h -5.2917 v -15.875 h 5.2917 v 5.29166 h -15.875 v -5.29166 h 5.2917 l -2e-4,42.33333 h -3e-4 37.0417 V 698.49999 h -216.9584 v 68.79167 l 26.4585,-10e-6 10e-5,-5.29167 v -21.16667 -5.29167 h 15.875 v 5.29167 h -5.2917 v -15.875 h 5.2917 v 5.29166 h -15.875 v -5.29166 h 5.2916 l 1e-4,42.33334 h 68.7916 -1e-4 v -5.29166 l 1e-4,-21.16668 v -5.29167 h 15.875 v 5.29167 h -5.2917 v -15.875 h 5.2917 v 5.29166 h -15.875 v -5.29166 h 5.2917 l -10e-5,42.33334 68.7917,-10e-6 -10e-5,-5.29166 10e-5,-21.16667 v -5.29167 h 15.875 v 5.29167 h -5.2916 v -15.875 h 5.2916 v 5.29166 h -15.875 v -5.29166 h 5.2917 l -1e-4,42.33334 31.75,10e-6 v 5.29167 l -211.6666,-2e-5 v 68.79167 h 26.4585 l 10e-5,-5.29165 0,-21.16666 v -5.29166 h 15.875 l 0,5.29166 h -5.2916 v -15.875 h 5.2916 l 0,5.29167 h -15.875 v -5.29167 h 5.2917 l -1e-4,42.33332 h 68.7915 v -5.29166 -21.16669 -5.29166 h 15.875 v 5.29166 h -5.2917 v -15.875 h 5.2917 v 5.29167 h -15.875 v -5.29167 h 5.2917 v 42.33335 l 68.7916,-10e-6 1e-4,-5.29166 2e-4,-21.16665 v -5.29166 h 15.875 l 0,5.29166 h -5.2917 l 0,-15.875 h 5.2917 l 0,5.29167 h -15.875 l 0,-5.29167 h 5.2917 l -2e-4,42.33332 31.7498,10e-6 v 5.29166 l -211.6666,-10e-6 v 68.79169 l -10e-5,5.2917 h -5.2917 V 693.20833 h 227.5417 v 227.54171 h -216.9583 v -5.2917 z"
       id="path3384-4-8"
       sodipodi:nodetypes="cccccccccccccccccccccccccccccccccccccccccccccccccccccccccccccccccccccccccccccccccccccccccccccccccccccccccccccccccccccccccccccccccccccccccccccccccccccccccccc" />
  </g>
</svg>
