<?xml version="1.0" encoding="UTF-8" standalone="no"?>
<svg
   xmlns:dc="http://purl.org/dc/elements/1.1/"
   xmlns:cc="http://creativecommons.org/ns#"
   xmlns:rdf="http://www.w3.org/1999/02/22-rdf-syntax-ns#"
   xmlns:svg="http://www.w3.org/2000/svg"
   xmlns="http://www.w3.org/2000/svg"
   xmlns:sodipodi="http://sodipodi.sourceforge.net/DTD/sodipodi-0.dtd"
   xmlns:inkscape="http://www.inkscape.org/namespaces/inkscape"
   width="210mm"
   height="297mm"
   viewBox="0 0 210 297"
   version="1.1"
   id="svg41"
   inkscape:version="1.0.2-2 (e86c870879, 2021-01-15)"
   sodipodi:docname="lodeletters4.svg">
  <defs
     id="defs35" />
  <sodipodi:namedview
     id="base"
     pagecolor="#ffffff"
     bordercolor="#666666"
     borderopacity="1.0"
     inkscape:pageopacity="0.0"
     inkscape:pageshadow="2"
     inkscape:zoom="2.0081833"
     inkscape:cx="932.24888"
     inkscape:cy="1166.2851"
     inkscape:document-units="mm"
     inkscape:current-layer="layer1"
     inkscape:document-rotation="0"
     showgrid="true"
     inkscape:window-width="1920"
     inkscape:window-height="986"
     inkscape:window-x="-11"
     inkscape:window-y="-11"
     inkscape:window-maximized="1">
    <inkscape:grid
       type="xygrid"
       id="grid914"
       dotted="true"
       spacingx="5.2916667"
       spacingy="5.2916667" />
  </sodipodi:namedview>
  <metadata
     id="metadata38">
    <rdf:RDF>
      <cc:Work
         rdf:about="">
        <dc:format>image/svg+xml</dc:format>
        <dc:type
           rdf:resource="http://purl.org/dc/dcmitype/StillImage" />
        <dc:title></dc:title>
      </cc:Work>
    </rdf:RDF>
  </metadata>
  <g
     inkscape:label="Layer 1"
     inkscape:groupmode="layer"
     id="layer1">
    <path
       style="fill:#000000;stroke:#000000;stroke-width:0.264583px;stroke-linecap:butt;stroke-linejoin:miter;stroke-opacity:1;fill-opacity:1;fill-rule:evenodd"
       d="m 16.396713,33.166079 v 82.728871 l 2.608568,-1.49061 V 27.57629 h -8.571009 l 0.372653,89.80927 13.04284,0.74531 L 21.61385,24.59507 5.9624412,25.340375 V 119.24883 L 65.586853,120.73944 64.096243,100.6162 -0.37265258,100.98885 0,106.95129 67.82277,104.71537 v 6.3351 l -66.3321597,0.37265 -0.74530515,8.94366 29.06690185,3.72653 -2.981222,-59.251762 -27.57629015,1.117957 v 7.080401 L 30.18486,67.450117 V 62.232981 L -2.9812207,61.115024 -3.3538731,75.648472 35.029343,70.431336 V 58.133802 H -5.9624412 L -6.7077465,79.002347 38.383215,71.921949 V 52.916666 H 2.2359155 L 1.8632629,18.632629 73.78521,19.750587 73.039906,42.109741 -4.0991784,40.619132 -5.2171361,14.906103 H 68.568074 L 67.450117,38.383215 -8.5710092,37.265258 -11.55223,10.806925 l 75.648473,1.117958 0.372652,23.10446 z"
       id="path45" />
    <path
       style="fill:#000000;stroke:#000000;stroke-width:0.264583px;stroke-linecap:butt;stroke-linejoin:miter;stroke-opacity:1;fill-opacity:1"
       d="m 119.7631,83.926396 0.2635,34.123914 26.74578,-0.39525 -1.18578,-30.566602 -30.30309,1.581031 0.13175,-4.084331 z"
       id="path884" />
    <path
       style="fill:#000000;stroke:#000000;stroke-width:0.264583px;stroke-linecap:butt;stroke-linejoin:miter;stroke-opacity:1;fill-opacity:1;fill-rule:evenodd"
       d="m 172.06887,86.166189 0.92227,33.596911 25.95526,-1.44928 -3.55732,-29.249073 -29.38083,0.922266 3.16207,31.488867 24.63773,-0.79051 -5.2701,-34.519181 z"
       id="path886" />
    <path
       style="fill:#000000;stroke:#000000;stroke-width:0.264583px;stroke-linecap:butt;stroke-linejoin:miter;stroke-opacity:1;fill-opacity:1;fill-rule:evenodd"
       d="m 128.72227,139.52598 -0.39525,8.56392 10.2767,1.05402 v -14.36103 l -17.39134,-1.31752 -0.26351,22.26618 27.53629,1.05402 -0.52701,-16.33732 z"
       id="path888" />
    <path
       style="fill:#000000;stroke:#000000;stroke-width:0.264583px;stroke-linecap:butt;stroke-linejoin:miter;stroke-opacity:1;fill-rule:evenodd;fill-opacity:1"
       d="m 175.49444,144.53258 -0.26351,11.06722 9.09093,-0.13175 -0.13175,-8.82743 h -12.12124 l 0.92227,13.70227 11.19897,0.79052 5.66536,-19.10413 -22.39794,0.79052 2.63505,25.42825 26.35052,2.23979 -2.7668,-33.72866 -31.35712,2.5033 2.76681,34.78268 34.12391,1.58103 -2.10804,-44.79588 -22.00268,3.16207 z"
       id="path890" />
    <path
       style="fill:#000000;stroke:#000000;stroke-width:0.264583px;stroke-linecap:butt;stroke-linejoin:miter;stroke-opacity:1;fill-rule:evenodd;fill-opacity:1"
       d="m 245.71857,147.16764 h -17.7866 l 0.13175,17.52309 h 17.39134 l -2.10804,-21.21217 -13.83402,1.05402 0.65876,22.7932 14.36103,0.92227 -4.21608,-27.93155 -8.82742,-0.13175 2.7668,32.54289 8.30041,0.39525 -5.00659,-38.73526 h -3.16207 l 1.84454,17.39135 11.06722,-0.13176 z"
       id="path902" />
    <path
       style="fill:#000000;stroke:#000000;stroke-width:0.264583px;stroke-linecap:butt;stroke-linejoin:miter;stroke-opacity:1;fill-rule:evenodd;fill-opacity:1"
       d="m 265.0862,128.19526 0.2635,28.0633 31.48888,0.65876 -1.71278,-27.79979 -31.35713,0.65876 0.13175,27.7998 32.01587,0.39526 -2.23977,-30.03959 z"
       id="path904" />
    <path
       style="fill:#000000;stroke:#000000;stroke-width:0.264583px;stroke-linecap:butt;stroke-linejoin:miter;stroke-opacity:1;fill-rule:evenodd;fill-opacity:1"
       d="m 330.83074,128.59052 v 4.47959 h 1.97627 v -3.16206 l -18.8406,-0.52701 0.79052,28.59031 53.75505,0.92226 -5.13837,-29.51257 z"
       id="path906" />
    <path
       style="fill:#000000;stroke:#000000;stroke-width:0.264583px;stroke-linecap:butt;stroke-linejoin:miter;stroke-opacity:1;fill-rule:evenodd;fill-opacity:1"
       d="m 322.26681,176.1532 -0.13174,5.53361 6.19236,0.39526 0.13177,-5.2701 -9.09093,0.2635 1.18576,15.54681 25.16476,0.52701 0.13173,-19.76289 z"
       id="path908" />
    <path
       style="fill:#000000;stroke:#000000;stroke-width:0.264583px;stroke-linecap:butt;stroke-linejoin:miter;stroke-opacity:1;fill-rule:evenodd;fill-opacity:1"
       d="m 369.3025,176.54846 v 15.0198 l 19.36761,1.05402 -2.7668,-16.73258 -18.31362,-0.13176 1.05403,18.05011 20.68517,-0.26351 -3.03032,-19.23587 -17.12783,0.2635 z"
       id="path910" />
    <path
       style="fill:#000000;stroke:#000000;stroke-width:0.264583px;stroke-linecap:butt;stroke-linejoin:miter;stroke-opacity:1;fill-rule:evenodd;fill-opacity:1"
       d="m 320.42229,212.25341 0.2635,9.35443 h 7.37815 l -0.2635,-7.24639 h -9.22269 l 0.2635,20.15815 26.48228,0.13175 -2.37157,-22.92495 -50.98825,0.52701 -0.13174,9.61794 6.45589,-0.79052 -0.39526,-6.71938 -7.77341,-0.52701 -0.13176,22.52969 27.7998,-1.31752 -2.37154,-39.26227 -24.37424,0.65876 v 6.06062 l 4.21608,-0.39526 -0.13173,-4.21608 h -5.40187 l 0.39526,12.38474 51.38351,-0.39526 -1.18578,-14.36103 -21.87093,1.05402 0.13176,4.87485 h 5.2701 v -3.82083 l -7.24641,0.39526 1.05403,10.14495 z"
       id="path912" />
  </g>
</svg>
